<svg xmlns="http://www.w3.org/2000/svg" xmlns:xlink="http://www.w3.org/1999/xlink" width="11" height="11" viewBox="0 0 11 11">
    <defs>
        <linearGradient id="linear-gradient" x1="0.034" y1="-0.092" x2="1.103" y2="1.321" gradientUnits="objectBoundingBox">
        <stop offset="0" stop-color="#ed8b28"/>
        <stop offset="1" stop-color="#e53935"/>
        </linearGradient>
        <clipPath id="clip-path">
        <rect id="Rectangle_4" data-name="Rectangle 4" width="11" height="11" transform="translate(50 397)" stroke="#707070" stroke-width="1" fill="url(#linear-gradient)"/>
        </clipPath>
    </defs>
    <g id="Mask_Group_1" data-name="Mask Group 1" transform="translate(-50 -397)" clip-path="url(#clip-path)">
        <path id="comments-solid" d="M7.944,3.667C7.944,1.978,6.166.611,3.972.611S0,1.978,0,3.667A2.591,2.591,0,0,0,.726,5.424,4.3,4.3,0,0,1,.042,6.464a.152.152,0,0,0-.029.166.15.15,0,0,0,.139.092,3.363,3.363,0,0,0,1.694-.477,4.859,4.859,0,0,0,2.126.477C6.166,6.722,7.944,5.355,7.944,3.667Zm2.33,4.2A2.587,2.587,0,0,0,11,6.111,3.177,3.177,0,0,0,8.531,3.283a2.838,2.838,0,0,1,.025.384c0,2.022-2.057,3.667-4.583,3.667A5.726,5.726,0,0,1,3.367,7.3a4.128,4.128,0,0,0,3.661,1.87,4.833,4.833,0,0,0,2.126-.477,3.363,3.363,0,0,0,1.694.477.151.151,0,0,0,.139-.092.153.153,0,0,0-.029-.166A4.253,4.253,0,0,1,10.274,7.868Z" transform="translate(50 397.611)" fill="url(#linear-gradient)"/>
    </g>
</svg>